<?xml version="1.0" encoding="utf-8"?>
<!-- Generator: Adobe Illustrator 26.3.1, SVG Export Plug-In . SVG Version: 6.00 Build 0)  -->
<svg version="1.1" id="Ebene_1" xmlns="http://www.w3.org/2000/svg" xmlns:xlink="http://www.w3.org/1999/xlink" x="0px" y="0px"
	 viewBox="0 0 250 25" style="enable-background:new 0 0 250 25;" xml:space="preserve">
<style type="text/css">
	.st0{fill:#8ca3c4;}
</style>
<g>
	<path class="st0" d="M7.7,19.9c-1.5,0-2.8-0.3-4-0.9c-1.1-0.7-2-1.5-2.7-2.6S0,14,0,12.6l0,0c0-1.4,0.3-2.7,1-3.8s1.6-2,2.8-2.6
		s2.5-0.9,4-0.9l0,0c1.3,0,2.4,0.2,3.5,0.7s1.9,1.1,2.6,2l0,0l-2.5,2.3c-0.9-1.1-2-1.6-3.3-1.6l0,0c-0.8,0-1.4,0.2-2,0.5
		S5,10,4.7,10.6c-0.5,0.5-0.7,1.2-0.7,2l0,0c0,0.8,0.2,1.5,0.5,2.1s0.8,1.1,1.4,1.4c0.6,0.3,1.3,0.5,2,0.5l0,0
		c1.3,0,2.4-0.5,3.3-1.6l0,0l2.5,2.3c-0.7,0.9-1.5,1.5-2.6,2S9,19.9,7.7,19.9L7.7,19.9z M19.4,16.5h7.3v3.1H15.5v-14h11v3.1h-7.1
		v2.4h6.2v3h-6.2C19.4,14.1,19.4,16.5,19.4,16.5z M39,5.6h4l-6,14h-3.9l-6-14h4.3l3.8,9.1L39,5.6z M43.8,19.6v-14h4v14H43.8z"/>
	<g>
		<path class="st0" d="M52.6,9.7c0-0.1,0-0.2-0.1-0.3l2.3,2.3C53.6,11.2,52.9,11.3,52.6,9.7"/>
		<path class="st0" d="M67.4,17.5c-1.6,0.5-3.2,0.8-4.7,0.9l5.7,5.7l2-7.5C69.4,16.9,68.4,17.2,67.4,17.5"/>
		<path class="st0" d="M72.4,8.1c-2.1,1.3-4.6,2.5-7,3.2c-3.2,0.9-6.5,1.2-9.1,0.8l-3.9-3.9l21.5-5.7L72.4,8.1"/>
		<path class="st0" d="M75.6,12.1c-1.6,2-4.2,3.4-8.4,4.6c-4.3,1.2-8.5,1.2-10.9-0.1c-0.8-0.5-1.3-1-1.5-1.7l-1.2-3.1
			c0,0,0.1,0,0.1,0.1c2.5,1.4,7.2,1.4,12,0c3.8-1.1,7.8-3.3,9.9-5.5V12.1"/>
		<path class="st0" d="M68.3,3.2l-14.9,4c1.5-2.2,5.1-4.3,9.3-5.6c1.2-0.3,3.8-0.8,5.6-0.7V3.2"/>
	</g>
	<path class="st0" d="M90.2,19.6l-2.5-3.7h-2.2v3.7h-4v-14H88c1.3,0,2.4,0.2,3.3,0.6c0.9,0.4,1.7,1,2.2,1.8s0.8,1.7,0.8,2.8l0,0
		c0,1-0.2,1.9-0.7,2.7s-1.2,1.3-2,1.8l0,0l3,4.4L90.2,19.6L90.2,19.6z M90.2,10.8c0-0.7-0.2-1.2-0.6-1.5c-0.4-0.4-1-0.5-1.8-0.5l0,0
		h-2.2v4.1h2.2c0.8,0,1.4-0.2,1.8-0.5C90,11.9,90.2,11.4,90.2,10.8L90.2,10.8z M100.3,16.5h7.3v3.1H96.4v-14h11v3.1h-7.1v2.4h6.2v3
		h-6.2V16.5z M119.2,16.1v-3.8h3.5v5.8c-0.8,0.6-1.7,1-2.8,1.3c-1,0.3-2.1,0.5-3.1,0.5l0,0c-1.5,0-2.8-0.3-4-0.9
		c-1.2-0.6-2.1-1.5-2.8-2.6c-0.7-1.1-1-2.4-1-3.8l0,0c0-1.4,0.3-2.7,1-3.8s1.6-2,2.8-2.6c1.2-0.6,2.5-0.9,4-0.9l0,0
		c1.3,0,2.5,0.2,3.5,0.7c1,0.4,1.9,1.1,2.6,1.9l0,0l-2.5,2.3c-0.9-1-2.1-1.6-3.4-1.6l0,0c-1.2,0-2.2,0.4-2.9,1.1
		c-0.7,0.7-1.1,1.7-1.1,2.9l0,0c0,0.8,0.2,1.5,0.5,2.1s0.8,1.1,1.4,1.4c0.6,0.3,1.3,0.5,2.1,0.5l0,0
		C117.8,16.6,118.5,16.4,119.2,16.1L119.2,16.1z M125.2,19.6v-14h4v14H125.2z M139.1,19.9c-1.5,0-2.8-0.3-4-0.9
		c-1.2-0.6-2.1-1.5-2.8-2.6s-1-2.4-1-3.7l0,0c0-1.4,0.3-2.6,1-3.7c0.7-1.1,1.6-2,2.8-2.6s2.5-0.9,4-0.9l0,0c1.5,0,2.8,0.3,4,0.9
		c1.2,0.6,2.1,1.5,2.8,2.6s1,2.4,1,3.7l0,0c0,1.4-0.3,2.6-1,3.7c-0.7,1.1-1.6,2-2.8,2.6C141.9,19.6,140.6,19.9,139.1,19.9
		L139.1,19.9z M139.1,16.6c0.7,0,1.3-0.2,1.9-0.5c0.6-0.3,1-0.8,1.4-1.4c0.3-0.6,0.5-1.3,0.5-2.1l0,0c0-0.8-0.2-1.5-0.5-2.1
		s-0.8-1.1-1.4-1.4c-0.6-0.3-1.2-0.5-1.9-0.5l0,0c-0.7,0-1.3,0.2-1.9,0.5c-0.6,0.3-1,0.8-1.4,1.4c-0.3,0.6-0.5,1.3-0.5,2.1l0,0
		c0,0.8,0.2,1.5,0.5,2.1s0.8,1.1,1.4,1.4C137.7,16.4,138.4,16.6,139.1,16.6L139.1,16.6z M158.4,5.6h3.9v14H159l-6.2-7.5v7.5H149v-14
		h3.3l6.2,7.5V5.6H158.4z M175.4,16.5h7.4v3.1h-12.6v-2.5l7.1-8.4h-6.9V5.6h12.1v2.5L175.4,16.5z M191,19.9c-2.1,0-3.7-0.6-4.9-1.7
		c-1.2-1.1-1.7-2.7-1.7-4.8l0,0V5.6h4v7.7c0,2.2,0.9,3.4,2.7,3.4l0,0c1.8,0,2.6-1.1,2.6-3.4l0,0V5.6h3.9v7.8c0,2.1-0.6,3.7-1.7,4.8
		C194.7,19.3,193.1,19.9,191,19.9L191,19.9z M188.9,4.5c-0.5,0-0.8-0.1-1.1-0.4c-0.3-0.3-0.4-0.7-0.4-1.1l0,0c0-0.5,0.1-0.8,0.4-1.1
		c0.3-0.3,0.7-0.4,1.1-0.4l0,0c0.5,0,0.8,0.1,1.1,0.4c0.3,0.3,0.4,0.7,0.4,1.1l0,0c0,0.5-0.1,0.8-0.4,1.1
		C189.7,4.3,189.4,4.5,188.9,4.5L188.9,4.5z M193.2,4.5c-0.5,0-0.8-0.1-1.1-0.4c-0.3-0.3-0.4-0.7-0.4-1.1l0,0c0-0.5,0.1-0.8,0.4-1.1
		c0.3-0.3,0.7-0.4,1.1-0.4l0,0c0.5,0,0.8,0.1,1.1,0.4c0.3,0.3,0.5,0.7,0.5,1.1l0,0c0,0.5-0.2,0.8-0.5,1.1
		C194,4.3,193.6,4.5,193.2,4.5L193.2,4.5z M208.9,19.6l-2.5-3.7h-2.2v3.7h-4v-14h6.4c1.3,0,2.4,0.2,3.3,0.6c0.9,0.4,1.7,1,2.2,1.8
		s0.8,1.7,0.8,2.8l0,0c0,1-0.2,1.9-0.7,2.7s-1.2,1.3-2,1.8l0,0l3,4.4L208.9,19.6L208.9,19.6z M208.9,10.8c0-0.7-0.2-1.2-0.6-1.5
		c-0.4-0.4-1-0.5-1.8-0.5l0,0h-2.2v4.1h2.2c0.8,0,1.4-0.2,1.8-0.5C208.7,11.9,208.9,11.4,208.9,10.8L208.9,10.8z M215.1,19.6v-14h4
		v14H215.1z M228.9,19.9c-1.5,0-2.8-0.3-4-0.9c-1.2-0.6-2.1-1.5-2.8-2.6s-1-2.4-1-3.8l0,0c0-1.4,0.3-2.7,1-3.8s1.6-2,2.8-2.6
		s2.5-0.9,4-0.9l0,0c1.3,0,2.4,0.2,3.5,0.7c1,0.5,1.9,1.1,2.6,2l0,0l-2.5,2.3c-0.9-1.1-2-1.6-3.3-1.6l0,0c-0.8,0-1.4,0.2-2,0.5
		s-1.1,0.8-1.4,1.4c-0.3,0.6-0.5,1.3-0.5,2.1l0,0c0,0.8,0.2,1.5,0.5,2.1s0.8,1.1,1.4,1.4c0.6,0.3,1.3,0.5,2,0.5l0,0
		c1.3,0,2.4-0.5,3.3-1.6l0,0l2.5,2.3c-0.7,0.9-1.5,1.5-2.6,2C231.3,19.7,230.2,19.9,228.9,19.9L228.9,19.9z M246,5.6h4v14h-4v-5.5
		h-5.4v5.5h-4v-14h4v5.3h5.4V5.6z"/>
</g>
</svg>
