<?xml version="1.0" encoding="utf-8"?>
<!-- Generator: Adobe Illustrator 26.3.1, SVG Export Plug-In . SVG Version: 6.00 Build 0)  -->
<svg version="1.1" id="Ebene_1" xmlns="http://www.w3.org/2000/svg" xmlns:xlink="http://www.w3.org/1999/xlink" x="0px" y="0px"
	 viewBox="0 0 250 25" style="enable-background:new 0 0 250 25;" xml:space="preserve">
<style type="text/css">
	.st0{fill:#637CA1;}
</style>
<g>
	<path class="st0" d="M42,19.9c-1.5,0-2.8-0.3-4-0.9c-1.2-0.7-2.1-1.5-2.8-2.6c-0.6-1.1-0.9-2.3-0.9-3.8l0,0c0-1.4,0.4-2.7,1-3.8
		s1.6-2,2.8-2.6c1.2-0.7,2.5-0.9,4-0.9l0,0c1.3,0,2.5,0.2,3.5,0.7c1,0.4,1.9,1.1,2.5,2l0,0l-2.5,2.3c-0.9-1.1-2-1.7-3.3-1.7l0,0
		c-0.8,0-1.5,0.1-2,0.5c-0.6,0.4-1.1,0.8-1.4,1.4c-0.4,0.6-0.5,1.3-0.5,2.1l0,0c0,0.8,0.1,1.5,0.5,2.1c0.4,0.6,0.8,1.1,1.4,1.4
		c0.6,0.4,1.3,0.5,2,0.5l0,0c1.3,0,2.4-0.6,3.3-1.7l0,0l2.5,2.3c-0.7,0.9-1.5,1.5-2.5,2C44.5,19.7,43.3,19.9,42,19.9L42,19.9z
		 M53.8,16.6h7.4v3H49.9V5.5h11v3h-7.1V11H60v3h-6.2C53.8,14,53.8,16.6,53.8,16.6z M73.5,5.5h3.9l-6,14.1h-3.9l-6-14.1h4.3l3.8,9.1
		L73.5,5.5z M78.2,19.6V5.5h4v14.1C82.2,19.6,78.2,19.6,78.2,19.6z"/>
	<g>
		<path class="st0" d="M87.1,9.7c0-0.1-0.1-0.2-0.1-0.4l2.3,2.3C88.1,11.3,87.4,11.3,87.1,9.7"/>
		<path class="st0" d="M101.9,17.5c-1.6,0.4-3.2,0.7-4.7,0.9l5.7,5.7l2-7.5C103.9,16.9,103,17.2,101.9,17.5"/>
		<path class="st0" d="M106.9,8.1c-2.1,1.4-4.6,2.5-7,3.2c-3.3,0.9-6.5,1.2-9.1,0.8l-3.8-3.8l21.5-5.7L106.9,8.1"/>
		<path class="st0" d="M110.1,12.1c-1.6,2-4.2,3.4-8.4,4.6c-4.3,1.2-8.6,1.2-10.9-0.1c-0.8-0.4-1.3-1-1.5-1.7L88,11.9
			c0.1,0,0.1,0.1,0.1,0.1c2.5,1.4,7.3,1.4,12,0c3.8-1.1,7.8-3.3,9.9-5.5L110.1,12.1"/>
		<path class="st0" d="M102.8,3.2l-15,4c1.5-2.2,5.1-4.4,9.4-5.6c1.2-0.4,3.8-0.8,5.7-0.7V3.2"/>
	</g>
	<path class="st0" d="M121,19.9c-1.2,0-2.2-0.1-3.3-0.4c-1.1-0.3-2-0.7-2.6-1.1l0,0l1.3-2.9c0.7,0.4,1.4,0.7,2.2,1s1.7,0.4,2.5,0.4
		l0,0c1.5,0,2.3-0.4,2.3-1.2l0,0c0-0.4-0.2-0.7-0.7-0.9c-0.4-0.2-1.2-0.4-2.1-0.6l0,0c-1.1-0.2-2-0.5-2.7-0.7
		c-0.7-0.3-1.3-0.7-1.8-1.2c-0.5-0.6-0.8-1.4-0.8-2.3l0,0c0-0.9,0.2-1.6,0.7-2.3c0.4-0.7,1.2-1.2,2.1-1.7c0.9-0.4,2.1-0.6,3.4-0.6
		l0,0c0.9,0,1.8,0.1,2.8,0.3c0.9,0.2,1.7,0.5,2.4,0.9l0,0l-1.2,3c-1.3-0.7-2.6-1.1-3.9-1.1l0,0c-0.8,0-1.4,0.1-1.7,0.4
		c-0.4,0.2-0.5,0.5-0.5,0.9l0,0c0,0.4,0.2,0.7,0.7,0.9c0.4,0.2,1.1,0.4,2.1,0.6l0,0c1.1,0.2,2,0.5,2.7,0.7c0.7,0.3,1.3,0.7,1.8,1.2
		c0.5,0.6,0.8,1.4,0.8,2.3l0,0c0,0.9-0.2,1.6-0.7,2.3c-0.4,0.7-1.2,1.2-2.1,1.7C123.5,19.7,122.4,19.9,121,19.9L121,19.9z
		 M136.1,19.9c-1.5,0-2.8-0.3-4-0.9c-1.2-0.7-2.1-1.5-2.8-2.6c-0.7-1.1-1-2.4-1-3.8l0,0c0-1.4,0.4-2.7,1-3.8s1.6-2,2.8-2.6
		c1.2-0.7,2.5-0.9,4-0.9l0,0c1.3,0,2.5,0.2,3.5,0.7c1,0.4,1.9,1.1,2.5,2l0,0l-2.5,2.3c-0.9-1.1-2-1.7-3.3-1.7l0,0
		c-0.8,0-1.5,0.1-2,0.5s-1.1,0.8-1.4,1.4c-0.4,0.6-0.5,1.3-0.5,2.1l0,0c0,0.8,0.1,1.5,0.5,2.1c0.4,0.6,0.8,1.1,1.4,1.4
		c0.6,0.4,1.3,0.5,2,0.5l0,0c1.3,0,2.4-0.6,3.3-1.7l0,0l2.5,2.3c-0.7,0.9-1.5,1.5-2.5,2C138.5,19.7,137.3,19.9,136.1,19.9
		L136.1,19.9z M153.3,5.5h4v14.1h-4v-5.5h-5.4v5.5h-4V5.5h4v5.3h5.4V5.5z M178.2,5.5h3.8l-4.6,14.1h-4.3l-2.6-8.6l-2.8,8.6h-4.3
		l-4.6-14.1h4.1l2.8,9l3-9h3.6l2.8,9.1L178.2,5.5z M187.4,16.6h7.3v3h-11.3V5.5h11v3h-7.1V11h6.2v3h-6.2L187.4,16.6L187.4,16.6z
		 M196.9,19.6V5.5h4v14.1C200.9,19.6,196.9,19.6,196.9,19.6z M208.2,16.5h7.4v3.1H203v-2.5l7.1-8.4h-6.9V5.6h12.1v2.5L208.2,16.5z"
		/>
</g>
</svg>
