<?xml version="1.0" encoding="UTF-8"?><svg id="Ebene_1" xmlns="http://www.w3.org/2000/svg" viewBox="0 0 80 50"><defs><style>.cls-1{fill:#4e6c99;fill-rule:evenodd;}</style></defs><g id="g12"><path id="path2" class="cls-1" d="M34.6,13.01c.09-.02,.13-.1,.25-.08,.06,.21-.23,.25-.25,.08Z"/><path id="path4" class="cls-1" d="M74.32,12.1s-.06,0-.1,0v-.1c.09-.01,.12,.02,.1,.1Z"/><path id="path6" class="cls-1" d="M89.46-.06c.02,.18-.09,.2-.07,.38-.41,.23-.62,.67-.97,.96,0,.05,0,.1,0,.14-.11,.09-.21,.17-.26,.32-.07,.04-.15,.06-.15,.18-.1,.07-.23,.12-.26,.28-.12,.14-.29,.23-.36,.42-.1,.07-.23,.12-.26,.28-.13,.11-.3,.18-.36,.37-.13,.11-.3,.18-.36,.37-.09,.06-.19,.09-.21,.23-.26-.09-.2,.17-.37,.17-.18,.23-.43,.38-.64,.59-.07,.02-.04-.06-.04-.1-.17,.09-.48,.23-.36,.47-.12,.05-.18,.16-.28,.23-.08,.02-.06-.04-.09-.05-.19,.1-.35,.25-.48,.41-.25,.01-.33,.21-.45,.36-.27-.01-.31,.24-.55,.26,0,.23-.29,.15-.31,.37-.26,.08-.37,.32-.63,.4-.03,0-.02,.06-.03,.1-.27,.11-.52,.22-.7,.42,0,.05,.1,.02,.14,.03,0,.06-.06,.06-.08,.09-.08,.02-.06-.04-.09-.05-.07,.25-.34,.28-.53,.41,0-.14,.11-.13,.16-.21-.24,0-.43,.28-.72,.32-.02,.07-.09,.09-.08,.19,.18,0,.19-.19,.4-.17-.36,.4-.86,.64-1.35,.9,.06-.07,.06-.21,.2-.18,.04-.13-.06-.13-.04-.24-.15-.03-.16,.1-.16,.23-.08,.03-.01-.08-.09-.05-.03,.08,.08,.02,.04,.1-.1-.02-.13,.05-.2,.06,.05,.04,.15,.03,.19,.08-.04,.11-.15,.14-.25,.18v-.22c-.11-.1-.2,.05-.35,0-.09,.11,.02,.25,.08,.3,.1,0,.14-.07,.22-.09,0,.18-.23,.08-.25,.23-.17,.03-.32,.08-.4,.22-.17,.01-.27,.11-.35,.22-.15-.02-.19,.07-.36,.03-.07,.16-.19,.27-.31,.37-.09,0-.07-.09-.19-.06-.02,.01-.03,.06-.07,.05,.03,.27-.12,.34-.22,.47-.04,0-.08,0-.12,0-.03,.04-.1,.05-.08,.14-.26,.28-.56,.5-.81,.78-.2,.05-.3,.21-.45,.31-.12,0-.19,.06-.2,.18-.15,.13-.33,.21-.45,.36-.12-.01-.15,.07-.2,.13-.39,.12-.59,.47-.91,.68-.12-.01-.15,.07-.2,.13-.23,.07-.35,.26-.51,.41-.19,.06-.32,.18-.45,.31-.12-.01-.15,.07-.2,.13-.26,.12-.45,.31-.65,.5-.14,0-.18,.1-.25,.18-.16,0-.22,.13-.3,.23-.2,.05-.3,.21-.45,.31-.14,0-.18,.1-.25,.18-.12-.01-.15,.06-.2,.13-.25,.08-.38,.29-.55,.45-.14,0-.18,.1-.25,.18-.32,.15-.53,.43-.81,.63-.12-.01-.15,.07-.2,.13-.12-.01-.15,.07-.2,.13-.22,.06-.33,.24-.5,.36-.12-.01-.15,.07-.2,.13-.23,.05-.42,.15-.55,.31-.16,0-.22,.13-.3,.23-.14,.01-.24,.07-.3,.18-.47,.14-.81,.43-1.2,.66h-.12c-.21,.22-.58,.27-.89,.38-.36,.04-.64-.02-.99-.1-.21-.28-.7-.3-.73-.74,0-.71,.24-1.14,.56-1.49,0-.3,.27-.31,.32-.56,.17-.11,.27-.27,.36-.47,.13-.11,.3-.18,.36-.37,.32-.22,.47-.64,.86-.78,.13-.29,.44-.39,.61-.64,.3-.13,.48-.38,.71-.59,.16,0,.22-.13,.3-.23,.26-.12,.47-.29,.66-.5,.16,0,.22-.13,.3-.23,.14,0,.18-.1,.25-.18,.12,.01,.15-.07,.2-.13,.3-.13,.48-.38,.71-.59,.32-.15,.53-.43,.81-.63,.32-.15,.53-.43,.81-.64,.36-.18,.66-.41,.95-.67,.18-.04,.31-.14,.4-.27,.02,0,.05,0,.07,0,.03-.04,.1-.05,.08-.14,.14,0,.18-.1,.25-.18,.18-.04,.28-.17,.4-.27,.14,0,.18-.1,.25-.18,.16,0,.22-.13,.3-.23,.21-.07,.35-.22,.5-.36,.12,.01,.15-.07,.2-.13,.27-.12,.52-.27,.7-.49,.14,0,.18-.1,.25-.18,.39-.16,.69-.43,.96-.72,.2-.04,.28-.2,.4-.32,.27-.1,.42-.32,.61-.5,.14,0,.18-.1,.25-.18,.28-.11,.45-.35,.66-.55,.14,0,.18-.1,.25-.18,.27-.1,.42-.32,.61-.5,.26-.12,.47-.29,.65-.5,.23-.07,.35-.26,.5-.41,.17-.01,.22-.16,.35-.22,.21,0,.35-.09,.4-.27,.34-.15,.64-.34,.9-.58,.14,0,.18-.1,.25-.18,.28-.11,.53-.26,.75-.44,.28-.09,.49-.27,.7-.45,.34-.13,.67-.28,.9-.53,.14,0,.18-.1,.25-.18,.14-.03,.28-.06,.35-.18,.11,.02,.18,0,.2-.09,.99-.18,1.77-.6,2.82-.72,.09,0,.22,.04,.24-.03,.24,.02,.44,0,.58-.07,.21,.01,.39,0,.54-.07,.51,.05,.51-.47,.97-.48-.02,.11,0,.18,.09,.2-.1,.31-.34,.47-.43,.8,.22-.2,.46-.37,.57-.7,.14,.04,.18-.04,.29-.03,0,.05,0,.1,0,.14-.11,.03-.07-.07-.17-.06-.04,.03-.01,.14-.13,.09,0,.13-.03,.21-.16,.19h0Zm-16.07,13.07s-.08,0-.12,0c-.02,.06-.08,.09-.06,.19,.26-.05,.31-.34,.6-.36,.06-.19,.24-.25,.4-.32,.07-.16,.24-.21,.4-.27-.02-.13,.13-.08,.13-.19,.04,0,.08,0,.12,0,.23-.17,.38-.43,.57-.65-.18,.02-.29,.13-.33,.32-.14-.03-.19,.02-.25,.08-.02-.05-.09-.06-.17-.06,0-.05,0-.1,0-.14-.07,0-.05,.08-.15,.04,0,.09,.09,.08,.14,.13-.03,.09-.06,.19-.16,.21,0-.08,0-.16,.01-.24-.07,.06-.23,.05-.29-.02-.06,.13-.22,.14-.26,.3,.03,.06,.12,.06,.09,.17,.1-.03,.07,.06,.14,.06,0-.04,0-.09,.03-.1,.15,.03,.12-.27,.27-.15-.3,.41-.76,.64-1.14,.98h0Zm-.78,.59c.01-.12,.08-.18,.2-.18-.01-.06-.04-.1-.12-.1-.06,.05-.09,.12-.22,.09,0,.14-.11,.18-.16,.28,.14,.02,.16-.1,.29-.08Zm.51-.51c-.1,.06-.25,.06-.25,.23,.17,.02,.25-.06,.25-.23Zm2.61-1.89c-.03-.1,.06-.07,.06-.14,0-.07-.08-.05-.04-.15-.07,.02-.12,.07-.15,.14,.06,0,.06,.06,.09,.08-.02,.05-.1,.04-.1,.12,.07,0,.05-.08,.15-.04h0Zm1.49-1.61c-.01-.06-.04-.1-.12-.1-.05,.02-.06,.09-.13,.09,.01,.05-.05,.17,.04,.15,.05-.07,.08-.15,.2-.13Zm.3-.18c-.15-.03-.2,.05-.25,.13,.12,0,.25,0,.25-.13Zm.25-.08c-.09-.02-.13,.03-.15,.09,.09,.02,.13-.03,.15-.09Zm.54-.17c-.1,.09-.1-.02-.19-.06,0,.07-.08,.04-.06,.14,.1,0,.19,0,.29,.02,.03-.08-.08-.02-.04-.1h0Zm1.73-.83v-.1s-.06,0-.09,0c.03,.1-.06,.07-.06,.14,.07,0,.05-.08,.15-.04Zm-4.21-.85s0,.06,0,.1c.03,0,.06,0,.1,0,.02-.08,0-.12-.09-.1Zm9.74-3.31c-.09,.04-.15,.1-.2,.18,.08-.05,.22-.03,.2-.18Zm-1.38-2.3c-.02-.07-.06-.13-.09-.2-.1-.04-.08,.05-.15,.04,.02,.09,.1,.13,.08,.25,.09,.02,.13-.03,.15-.09Zm3.04-.85s0,.06,0,.1c.05,0,.1,0,.14,0-.01-.06-.05-.11-.14-.1Zm1.77-.63c.02-.09-.03-.13-.09-.15-.02,.03-.12,.18-.01,.19-.02-.07,.06-.04,.1-.04Z"/><path id="path8" class="cls-1" d="M32.51,15.51c-.09,.03,.05,.04,.02,.1-.08-.03-.02,.08-.1,.04,.02-.11,0-.18-.09-.2,.02-.19-.01-.42,.12-.48,.03-.08-.08-.02-.04-.1,.12-.04,.07-.26,.25-.23,0-.05,0-.1,0-.14,.42-.41,.83-.84,1.32-1.19,.05-.01,.03,.05,.07,.05,.07-.2,.31-.22,.48-.31-.04,.09-.14,.1-.11,.26,.1,.01,.11,.1,.08,.22,.17-.03,.17-.25,.26-.37,.09,0,.2,0,.21,.06,.08-.05,.09-.17,.18-.21-.07-.05-.22-.03-.18-.18,.05-.01,.03,.05,.07,.05,.07-.15,.18-.25,.33-.32,.07-.01,.02,.08,.12,.05,.05-.06,.05-.17,.18-.14,0,.29-.33,.21-.27,.57,.18-.15,.41-.24,.62-.35,.06-.23,.4-.15,.57-.26,.02-.2,.21-.21,.4-.22-.05-.06-.05-.17-.03-.29,.1,.04,.08-.05,.15-.04-.02,.11-.08,.18-.06,.33,.1-.01,.13-.09,.2-.13-.02-.06-.07-.09-.04-.19,.09,0,.07-.12,.2-.09-.02,.11,0,.19,.04,.24,.14,0,.07-.22,.16-.28h.17c.06-.25,.31-.29,.6-.3,.13-.1,.28-.17,.49-.17,.02-.04,.08-.03,.08-.09,.32,.04,.54-.21,.79-.3,.21-.07,.47-.03,.64-.21,.44-.13,.89-.24,1.23-.47h.22s.08-.02,.08-.08c.21-.02,.41-.06,.54-.17,.38-.11,.75-.22,1.04-.43,.65-.07,1.07-.39,1.69-.49,.29-.17,.58-.35,.99-.38,.45-.26,1.08-.31,1.5-.6,.46-.03,.79-.21,1.13-.38,.21,.02,.32-.07,.47-.12,.08,0,.16,0,.24,.01,.1-.07,.16-.18,.23-.28,.58-.1,1-.37,1.59-.45,.7-.39,1.7-.44,2.43-.79,.35-.04,.61-.18,.89-.29,.12,0,.24,.01,.36,.02,.62-.22,1.26-.42,1.85-.68,.06,0,.11,0,.17,0,.55-.23,1.25-.3,1.7-.64,.17,0,.3-.02,.42-.07,.06,0,.13,0,.19,.01,.31-.34,.86-.4,1.2-.71,.08-.02,.06,.04,.09,.05,.27-.14,.64-.16,.86-.34,.37,.02,.56-.16,.74-.35,.17,.02,.29-.02,.35-.13,.5-.06,.87-.27,1.44-.26,.1-.27,.47-.24,.67-.4h.22c.05-.06,.19-.03,.23-.12,.19,.02,.3-.04,.39-.12h.17c.33-.13,.6-.34,.99-.42,.88-.11,1.65-.34,2.35-.65,.31,0,.54-.08,.78-.15,.06,0,.13,0,.19,.01,.13-.12,.4-.08,.52-.21,.32,0,.53-.13,.74-.25,1.07-.18,2.07-.43,3.01-.76,.32-.02,.61-.07,.88-.15,.48-.03,.84-.19,1.32-.22,.02-.04,.08-.03,.08-.09,.39-.06,.74-.18,1.15-.23,.11,0,.3,.06,.34-.03,.13-.01,.33,.06,.39-.03,.13-.01,.33,.06,.39-.03,.14-.01,.37,.07,.44-.03,1.42-.03,2.8,.36,4.02,.21-.01,.14-.13,.16-.16,.28-.06,0-.11,0-.17,0-.06,0-.02,.12-.03,.17,.06,.05,.17,.05,.14,.18,.12-.02,.23-.05,.25-.18,.08-.03,.01,.08,.09,.05-.04,.21-.38,.09-.36,.37-.36,.29-.71,.61-1.06,.91-.25,.08-.38,.29-.55,.45-.2,.02-.32,.21-.52,.26-.05,.01-.05,.08-.08,.09-.16,.08-.37,.07-.45,.27-.14,.03-.28,.06-.35,.18-.12-.01-.2,.02-.25,.08-.52,.12-.95,.33-1.38,.56-.15,0-.25,.03-.3,.13-.51,0-.81,.24-1.29,.27-.07,.12-.27,.09-.33,.23-.21,.04-.42,.06-.61,.11-.5,.01-.8,.24-1.23,.32-.2,.22-.56,.24-.82,.39-.59,.08-1.04,.32-1.64,.4-.09,.12-.25,.18-.38,.27-.51,.03-.9,.19-1.28,.37-.29-.01-.44,.12-.59,.26-.4,.05-.67,.26-1.1,.28-.67,.22-1.25,.55-1.97,.72-.44,.08-.89,.15-1.16,.42-.64,.18-1.27,.37-1.94,.53-.07,.08-.18,.13-.23,.23-.16,0-.31,.03-.39,.12-.33-.04-.47,.14-.8,.1,0,.07-.13,0-.12,.09-.51,.1-1,.22-1.38,.46-.53,.12-1.08,.23-1.52,.45-.28-.02-.34,.22-.62,.21-.1,.1-.32,.08-.44,.17-1.11,.12-1.79,.7-2.85,.87-.19,.14-.49,.15-.62,.35-.83,.16-1.56,.42-2.24,.75-.56,.04-.92,.31-1.47,.36-.02,.04-.08,.03-.08,.09-.27-.02-.3,.23-.57,.21-.02,.04-.08,.03-.08,.09-.83,.15-1.52,.44-2.28,.65-.06,0-.13,0-.19-.01-.64,.21-1.38,.32-1.9,.67-.24,0-.44,.06-.59,.16-.09,0-.2-.03-.22,.04-.59-.02-.85,.31-1.42,.31-.17,.19-.39,.32-.79,.25-.06,.11-.22,.11-.28,.23-.51-.01-.85,.17-1.13,.42h-.22c-.13,.14-.48,.05-.62,.2-.11,0-.28-.05-.32,.03-.1,0-.19-.01-.29-.02-.31,.18-.75,.2-.97,.48-.16,.01-.24-.05-.31-.11-.08,.11-.34,.25-.49,.12-.12,.19-.29,.33-.64,.26-.07,.04-.13,.1-.25,.08-.02,.04-.08,.03-.08,.09-.16-.06-.27,.12-.36-.02-.16,.23-.45,.47-.84,.3-.03,0-.02,.06-.03,.1-.17,.02-.18-.1-.26-.16-.09-.04-.05,.06-.12,.04-.04-.06-.06-.13-.04-.24,.24-.05,.48-.36,.71-.25,.04-.06,.17-.03,.18-.14,.45-.16,1.01,.34,1.21-.13,.21,.03,.32-.05,.4-.17,.08-.03,.01,.08,.09,.05,.12-.07,.23-.14,.42-.12,.14-.16,.35-.24,.48-.41,.37,.07,.52-.1,.69-.25,.21,0,.34-.1,.49-.17,.04,0,.05,.02,.05,.05,.52-.06,.84-.34,1.26-.51,.44,.06,.66-.14,.86-.34,.32,.03,.55-.03,.69-.21,.57,.09,.76-.23,1.06-.43,.4,.12,.83-.12,1.17-.23,.06,0,.13,0,.19,0,.2-.08,.43-.14,.68-.16,.31-.12,.52-.34,.94-.34,.06-.08,.22-.06,.3-.13l.34,.02c.13-.11,.29-.19,.49-.22,.23-.35,.68-.47,1.14-.57,.25,.03,.5,.13,.68-.01,.23,0,.42-.03,.52-.17,.14,.04,.14-.07,.27-.03,.22-.25,.6-.31,.99-.38,.02-.04,.08-.03,.08-.09h.17s.08-.02,.08-.08c.27-.01,.45-.11,.59-.26h.12c.5-.32,1.18-.45,1.82-.62,.03-.05,.05-.09,.08-.14,.3,.03,.44-.1,.71-.11,.18-.27,.63-.24,.82-.49,.24-.01,.43-.08,.61-.16,.18,.02,.31-.01,.37-.13,.14,0,.29-.01,.35-.13,.23-.01,.45-.03,.61-.11,.1,0,.19,.01,.29,.02,.3-.04,.38-.33,.69-.35,0-.07,.13,0,.13-.09,.24,0,.4-.06,.54-.17,.23,.02,.47,.05,.54-.12,.31,0,.6-.05,.69-.3,.17,.03,.25-.03,.3-.13,.28-.06,.59,.22,.68-.06,.15,.03,.2-.05,.25-.13,.31,.02,.45-.15,.55-.36,.05,0,.1,0,.14,0,0,.03,0,.06,0,.1,.36,.14,.66-.14,1.05-.14,.09-.07,.18-.14,.3-.18,.03,0,.02-.06,.03-.1,.21-.06,.54,.02,.59-.21,.15,0,.18,.09,.36,.07,.02-.04,.08-.03,.08-.09,.21,0,.36-.08,.45-.22,.15,.02,.19-.07,.36-.03,.28-.22,.85-.12,1.06-.43,.2-.02,.35-.09,.4-.27,.14,.11,.38,0,.39-.17,.51,.13,1.06,0,1.33-.41,.12,.01,.23,.02,.25-.08h.17c.07-.18,.42-.06,.59-.15,.4,0,.69-.12,1.02-.19l.34,.02c.12-.16,.35-.21,.43-.41,.14-.05,.33-.04,.35-.22,.53,.18,1.04-.3,1.53-.16,0-.07,.13,0,.12-.09,.08-.02,.02,.08,.12,.05,.03-.04,.1-.05,.08-.14,.11,.03,.1-.08,.22-.04,.28-.22,.74-.25,.97-.53,.13,0,.26,.01,.39,.02,.25,.14,.48-.15,.76-.15,.02-.04,.08-.03,.08-.09,.25,.02,.31-.18,.61-.11,.18-.26,.53-.33,.94-.34,.13-.15,.29-.27,.48-.36,.08-.03,.01,.08,.09,.05,.19-.13,.44-.17,.67-.3,.1-.06,.22-.2,.33-.27,.07-.05,.23-.05,.21-.26-.04-.13-.32-.28-.48-.15-.06-.01-.06-.08-.17-.06-.16,.15-.36,.26-.48,.46-.17,.02-.45-.09-.49,.07-.41-.03-.77,0-.98,.19-.26,.02-.45,.13-.71,.16-.09,.03-.04-.07-.12-.05-.04,.04-.14,.02-.15,.09-.41-.04-.51,.27-.91,.24-.02,.04-.08,.03-.08,.09-.34-.04-.55,.06-.74,.2-.17-.03-.25,.03-.3,.13-.16,0-.22-.09-.41-.07-.09,.09-.22,.13-.39,.12-.11,.14-.35,.14-.47,.27-.34-.06-.4,.18-.71,.16-.02,.04-.08,.03-.08,.09-.15,0-.37-.07-.39,.08-.14-.04-.63-.06-.68,.16-.09,0-.18,0-.27-.01-.06,.07-.14,.1-.18,.18-.19-.04-.28,.03-.39,.07,0,.08,0,.16-.01,.24-.05,0-.09,.04-.1,.09-.18-.04-.36-.08-.37-.26-.38-.04-.46,.25-.81,.25-.05,.14-.32,.03-.33,.23-.14,0-.18,.1-.25,.18-.14,.02-.22-.14-.31-.02-.2-.03-.32,.04-.42,.12-.63,0-1.06,.21-1.43,.51-.1,0-.21-.01-.31-.02-.35,.22-.89,.21-1.25,.42-.46-.07-.44,.37-.82,.39-.18-.05-.22,.06-.39,.03-.11,.14-.37,.11-.47,.27-.26,.01-.5,.06-.59,.26-.17-.02-.21,.1-.3,.18-.07-.06-.11-.06-.15,.04-.11-.16-.24,.16-.36-.02-.11,.13-.38,.09-.49,.22-.09,0-.07-.09-.19-.06-.02,.04-.08,.03-.08,.09-.43,0-.55,.32-1.01,.29-.13,.07-.32,.31-.49,.17-.08,.01-.19,.09-.24-.01-.15,.13-.38,.18-.57,.26-.28-.27-.49,.11-.89,0-.07,.1-.22,.11-.23,.28-.34,.07-.6,.23-.96,.29-.06,.04-.09,.12-.13,.19-.24,0-.31,.21-.56,.07-.03,0-.02,.06-.03,.1-.47,.09-.92,.2-1.32,.36-.48,.06-.86,.24-1.18,.47-.34,0-.5,.2-.9,.15-.28,.13-.59,.23-.93,.29-.08,.09-.16,.18-.23,.28-.65,.13-1.31,.25-1.72,.63h-.17c-.3,.19-.84,.13-1.11,.37-.07,0-.14,0-.22-.01-.1,.12-.29,.13-.38,.27-.57-.07-.86,.16-1.22,.32-.04,0-.05-.02-.05-.05-.52,.1-.93,.31-1.36,.51-.03,0-.02,.06-.03,.1-.24,.01-.51-.02-.59,.16-.4-.06-.46,.25-.9,.15-.09,.09-.24,.12-.28,.27-.12-.01-.23-.02-.25,.08-.1,0-.21-.01-.31-.02,0,.07-.13,0-.13,.09-.19-.02-.34,.01-.46,.07-.19-.07-.3,.09-.42,.12-.06,.02-.11-.02-.17,0-.12,.02-.42,.15-.52,.26-.18-.04-.2,.11-.37,.08-.23,.3-.79,.23-1.11,.42-.39-.02-.57,.2-.95,.19-.02,.07-.09,.09-.08,.19-.2-.05-.26,.06-.46,.02-.04,.05-.11,.06-.13,.14-.36-.01-.46,.27-.79,.3-.21-.15-.41,.09-.66,.06-.15,.17-.34,.3-.64,.3-.02,.04-.08,.03-.08,.09-.14,0-.29,.01-.35,.13-.15,0-.25,.03-.3,.13-.15,0-.37-.07-.39,.08-.46-.01-.65,.28-1.01,.38-.09,0-.09-.09-.22-.06,0-.17-.07-.23,.04-.34,.09,.06,.23,.09,.22-.09,.18-.01,.19-.04,.36,.02,.02-.19,.2-.21,.33-.27,.07,0,.07,.08,.12,.1,.1-.07,.34,.02,.32-.18,.4,.04,.72-.02,.97-.14,0-.08,0-.16,.01-.24,.27-.08,.59-.09,.74-.3,.12,.01,.23,.02,.25-.08,.24,.03,.38-.06,.49-.17h.22s.08-.02,.08-.08h.12c.15-.2,.45-.22,.67-.35,.33,.01,.56-.09,.74-.25h.12c.04-.19,.28-.18,.38-.31h.22s.08-.02,.08-.08c.42-.04,.8-.13,1.08-.33,.2,.02,.38,.02,.44-.12,.14,.02,.26,.02,.25-.13,.29,0,.46-.12,.76-.1,.09-.1,.21-.16,.28-.28,.3-.04,.59-.09,.79-.25,.63-.17,1.21-.4,1.84-.58,.08-.12,.24-.15,.33-.27,.06,.01,.06,.08,.17,.06,.05-.09,.2-.07,.23-.18,.35,.07,.43-.15,.75-.11,.1-.17,.42-.09,.52-.26,.29,.02,.47-.09,.59-.26,.36,.09,.66-.13,.85-.05,.21-.23,.76-.1,.91-.39h.17c.19-.18,.48-.25,.72-.39,.05-.01,.03,.05,.07,.05,.08-.12,.28-.11,.37-.22,.4,.05,.6-.12,.79-.3,.45-.03,.82-.14,1.04-.43,.08,.01,.15,.01,.17-.04,.08,0,.16,0,.24,.01,.25-.15,.67-.12,.86-.34,.27-.06,.58-.07,.78-.2,.27,.03,.45-.05,.54-.21h.27c.19-.28,.7-.21,.96-.42,.4,.04,.53-.23,.79-.35,0-.05,0-.1,0-.14,.12-.05,.17-.18,.35-.18,.03-.08-.08-.02-.04-.1,.05-.01,.03,.05,.07,.05,.02-.07,.09-.09,.08-.19,.33,0,.45,.19,.69,.28,.27-.22,.81-.14,1.01-.43h.22c.06-.06,.14-.08,.18-.17,.65-.02,1.06-.3,1.64-.4,.02-.04,.08-.03,.08-.09,.44,.09,.41-.35,.86-.24,.24-.14,.58-.17,.84-.3,.03,0,.02-.06,.03-.09,.41-.1,.8-.22,1.11-.43,.08,0,.12,.01,.14,.06,.11-.03,.14-.15,.3-.13,.1-.24,.45-.25,.73-.15,.21-.13,.51-.17,.62-.4,.06,.01,.06,.08,.17,.06,.13-.15,.43-.11,.48-.36,.05,.01,.08,.05,.09,.1,.32,.05,.53-.03,.68-.16,.23,.03,.4,0,.58-.02,.02-.44,.68-.17,.8-.49,.12,.01,.23,.02,.25-.08,.33,.12,.45-.22,.66-.06,.03-.06,.19-.15,.24-.03,.28-.08,.49-.23,.7-.4,.09-.03,.04,.07,.12,.06,.2-.03,.32-.14,.56-.12,.2-.15,.46-.23,.83-.2,.21-.14,.49-.22,.72-.35,.05-.01,.03,.05,.07,.05,.08-.1,.3-.06,.37-.17,.18,.02,.31-.01,.42-.07,.39-.05,.81-.07,.96-.39,.06-.02,.21,.06,.2-.04,.05-.01,.03,.05,.07,.05,.1-.09,.26-.1,.33-.22,.25,.03,.45,0,.65-.02,.27-.23,.76-.21,1.08-.38,.02-.11,.13-.13,.2-.18,.08,0,.12,.01,.14,.06,.04-.05,.11-.06,.13-.14,.7,.09,1.15-.08,1.56-.3,.12-.02,.34,.08,.39-.03,.14,.1,.37-.06,.4-.24-.18-.22-.7-.14-.69,.23-.27-.3-.89-.09-1.18-.11-.18-.05-.22,.06-.39,.03-.06,.02-.06,.11-.15,.09-.03,0-.02,.06-.03,.1-.14-.17-.43,.07-.55-.08-.36,.16-.77,.27-1.27,.27-.09,.1-.13,.24-.23,.32-.37-.02-.39,.35-.84,.25,.03-.08-.08-.02-.04-.1-.87,.08-1.87,.03-2.35,.55-.24,0-.42,.08-.63,.11-.13-.1-.44-.07-.49,.07-.45-.08-.51,.26-.95,.19-.23,.1-.31,.43-.63,.4-.11-.01-.22-.11-.33-.11-.08,0-.27,.1-.35,.13-.08,.03-.18,0-.27,.03-.18,.06-.32,.22-.52,.26,.02,.13-.1,.1-.11,.19-.26-.06-.3,.12-.56,.07-.08,.24-.54,.06-.62,.31-.2,.01-.45-.02-.54,.12-.24,.05-.63-.05-.69,.21-.12-.01-.2,.02-.25,.08-.1-.12-.22,.03-.29-.06-.07,.04-.16,.06-.15,.18-.13,0-.27-.03-.34,.03,0-.1-.13-.08-.16-.15-.09,.14-.29,.15-.4,.27-.27-.17-.35,.21-.66,.16,.04-.1-.05-.08-.04-.15-.28-.05-.19,.32-.38,.37-.08,.02-.06-.04-.09-.05-.06,.07-.14,.1-.18,.18-.08,0-.15,0-.17-.06-.02,.04-.08,.03-.08,.09-.12,0-.24-.01-.36-.02-.08,.15-.34,.08-.38,.27-.09,0-.2,0-.21-.06-.02,0-.05,0-.07,0-.47,.19-.86,.47-1.29,.71-.1,0-.21-.01-.31-.02-.02,.04-.08,.03-.08,.09h-.22c-.18,.14-.44,.19-.62,.34-.21-.06-.33,.07-.49,.12-.03,.01-.09-.02-.12,0-.14,.07-.31,.24-.34,.42-.09,.02-.1,.13-.25,.08-.04,.11,.18,0,.14,.1-.13,.04-.23,.12-.39,.12v-.1c-.21,0-.46-.05-.55,.07-.26-.17-.44,.09-.73,.06-.19,.22-.71,.08-.82,.39-.36,0-.58,.17-.84,.29-.05-.05-.15-.07-.26-.06-.18,.18-.56,.14-.67,.4-.19-.02-.39,.18-.56,.02-.3,.16-.8,.08-1.01,.33h-.27c-.29,.13-.67,.18-.91,.37-.17-.04-.23,.03-.36,.03-.33,.22-.83,.25-1.16,.47-.26,.01-.4,.15-.66,.16-.07,.08-.18,.13-.23,.23-.24,0-.44,.06-.59,.16-.09,0-.18,0-.27-.01-.21,.18-.64,.13-.82,.34-.11-.02-.18,0-.2,.09-.34,.05-.61,.19-.91,.29-.27,.01-.48,.1-.66,.21h-.17c-.35,.25-.82,.38-1.24,.55-.23-.06-.29,.08-.44,.12-.03,0-.02,.06-.03,.1-.33-.05-.42,.17-.71,.16-.02,.04-.08,.03-.08,.09-.16,.02-.35,.02-.44,.12-.06,0-.11,0-.17,0-.3,.11-.5,.33-.89,.34-.04,.06-.17,.03-.18,.14h-.27c-.42,.31-.99,.49-1.62,.58-.07,.08-.24,.06-.28,.18-.39,.02-.71,.12-.94,.34-.24,0-.44,.06-.59,.16-.32,.03-.59,.13-.79,.3-.23,0-.35,.12-.49,.22-.42-.07-.46,.28-.81,.3-.12,.11-.24,.21-.45,.22-.26,.46-.89,.49-1.18,.9-.31-.08-.32,.11-.26,.32-.44-.06-.51,.3-.7,.52,.05,.04,.06,.11,.14,.13,.1-.04,.15-.12,.27-.13,.04-.15,.19-.18,.33-.23,.07,.03,.11,.08,.14,.15-.21,.19-.57,.21-.66,.55,.27-.11,.47-.29,.75-.4-.01,.04,.02,.05,.05,.05-.11,.11-.17,.27-.38,.27-.04,.09-.11,.14-.22,.13-.01,.1,.02,.24-.06,.26,.03,.06,.1,.09,.21,.08,.03,0,.02-.06,.03-.1,.09,.04,.12,.12,.18,.18-.01,.16-.2,.12-.23,.25-.1-.03-.16-.08-.16-.2-.11,.03-.08-.08-.19-.06,.03-.1-.02-.14-.04-.2-.02-.07,.06-.04,.1-.04-.01-.09-.01-.19-.11-.2-.04,.12-.05,.26-.18,.28v.29c-.1-.03-.13-.11-.25-.11,0-.15-.09-.19-.13-.3,.08-.01,.1-.08,.15-.11-.04-.11-.11-.19-.17-.27h0Zm.23-.33c-.08,0-.11,.08-.11,.19,.03,0,.06,0,.1,0,0-.06,0-.13,0-.19Z"/></g></svg>