<?xml version="1.0" encoding="UTF-8"?><svg id="Ebene_1" xmlns="http://www.w3.org/2000/svg" viewBox="0 0 80 50"><defs><style>.cls-1{fill:#4e6c99;fill-rule:evenodd;}</style></defs><g id="g96"><path id="path92" class="cls-1" d="M70.25,41.9c-.06,.2-.23,.14-.38,.12,.11-.07,.21-.19,.38-.12Z"/><path id="path94" class="cls-1" d="M40.92,31.77c.05-.16-.09-.38,.06-.63,.12,0,.22-.05,.34-.04,.1,.02-.09,.16,.05,.16,.09-.03-.02-.12,.06-.21,.31,.05,.51-.18,.84-.11,.02,.09,.09,.16,.02,.29,.1,.09,.12-.02,.19-.01,.06,.05,0,.14,.03,.2,.07-.04,.09-.2,.14-.29,.03-.05-.13-.04-.1-.09,.1-.07,.32-.14,.41,.01-.03,.09-.11,.07-.13,.2,.08,.08,.05,.2,.09,.29,.1,0,.18-.07,.28-.06,.03-.15,.12-.17,.2-.19,.1,.05,.17,.17,.29,.13,.11,.05,.05,.17,.13,.24,.12-.04,.31-.25,.42-.05,.08-.11,.28,.07,.38,.02-.02,.05,.02,.07,.03,.1,.14-.02,.45,.01,.52,.08,.16-.13,.37-.14,.59-.12,.07,.06,.04,.16,.09,.22,.24-.09,.53-.05,.8-.08,.08,.04,.08,.11,.14,.15,.15-.02,.36,.1,.46-.04,.07,0,.03,.05,.06,.07,.04,0,.07-.04,.11-.05,.56,.18,1.13,.31,1.7,.49,.57,.18,1.15,.32,1.74,.5,2.86,.89,5.75,1.97,8.71,3.05,.07,.01,0,.08,.08,.08,.45,.06,1.06,.49,1.51,.55,.09,.06,.11,.06,.2,.08,.56,.12,1.39,.72,2.01,.85,.2,.04,.63,.16,.83,.35,.3,.04,.76,.39,1.34,.57,.61,.19,1.08,.47,1.62,.78,.24,.14,.45,.37,.68,.52,.04,.03,.1,.03,.14,.06,.15,.12,.29,.24,.48,.39,.04,.03,.1,.07,.14,.11,.12,.11,.15,.21,.33,.32,.08,.05,.29,.26,.33,.32,.02,.04,0,.11,.03,.15,.08,.12,.22,.2,.27,.35,0,.1-.08,.04-.1,.12,.07,.08,.27,.12,.38,.19-.01,.1-.09,.04-.11,.14-.12,0-.23,.02-.32,.1-1.32,.06-2.65,.08-4.09-.16-.2-.09-.38-.13-.54-.14-.09-.04-.17-.07-.26-.11-.04-.03-.04,.03-.08,.01-.92-.26-1.98-.67-2.97-.98-.81-.28-1.68-.52-2.54-.8-.32-.13-.64-.25-.94-.31-.13-.03-.31-.18-.41-.13-.57-.2-1.15-.44-1.68-.58-.07,0,.01-.07-.06-.07-.89-.19-1.88-.64-2.79-.91-1.29-.46-2.62-1-3.88-1.37-1.76-.63-3.82-1.19-5.59-2.19-.26,.06-.46-.29-.63-.27,.03-.07-.06-.08-.03-.15-.08,.03-.19,.02-.29,.02-.09,0,.03-.09-.03-.1-.28-.05-.79-.23-.87-.46-.59-.31-.94-.72-1.26-1.14,0-.2,.12-.45,.08-.64,.05-.11,.08-.26,.19-.22,.1,.04-.01,.17,.04,.23,0,.09,.05-.03,.09,.01-.01,.07,.04,.1,.05,.16Zm8.58,.95s.12,.09,.13,.01c-.04-.02-.08-.03-.12-.05,0,.01-.01,.03-.02,.04Zm-5.03-.84l.08,.03s.09-.12,.01-.13c-.02,.06-.08,.01-.09,.1Zm-2.23,.12s.05,.02,.08,.03c.03-.11,.09-.12,.14-.17,.04,.17,.26-.08,.31,.09,.01-.02,.03-.04,.06-.02-.02-.11,.08-.27-.04-.34-.16,.19-.44,.09-.55,.42Zm-1.67-.01c.12,.05,.21,.05,.29-.02-.03-.03-.13-.03-.11-.07,.05-.1,.06-.19,.01-.25-.09,.04-.13,.22-.19,.34h0Zm1.46,.62c-.09,.14-.06,.14-.14,.22,.1,0,.04,.08,.12,.1,.03-.03,.09-.01,.15,.02,.03-.1,.11-.06,.12-.18-.12-.05-.12-.21-.26-.16Z"/></g><g id="g168"><path id="path166" class="cls-1" d="M83.13,28.28c.09,.03,.19,.07,.28,.07,0,.11-.03,.22-.07,.34-.04,.03-.08,.03-.12,0-.46,.56-.99,1.17-1.43,1.77-.34,.15-.44,.66-.7,.8-.08,.23-.25,.59-.51,.65-.05,.05-.09,.1-.07,.14-.47,.4-.76,1.12-1.21,1.46-.04,.05,0,.09,0,.14-.31,.38-.55,.72-.84,1.16,0,.06-.04,.11-.03,.17-.14,.06-.23,.3-.33,.45-.22,.18-.41,.58-.63,.86,.02,.05-.02,.11,.03,.16-.08,.09-.17,.22-.26,.23,0,.09-.08,.2-.08,.29-.08,.03-.19,.11-.18,.21-.04,.08-.1,.07-.14,.1-.02,.22-.29,.45-.48,.68,.02,.14-.11,.3-.16,.45-.22,.13-.39,.32-.49,.56-.11,.11-.46,.46-.47,.67-.32,.16-.43,.69-.74,.85-.08,.19-.12,.52-.38,.63,.03,.12-.16,.26-.17,.39-.03,.08-.08-.01-.12,.07-.2,.26-.31,.61-.54,.94-.19,.27-.49,.48-.65,.75-.09,.14-.16,.35-.21,.5-.03,.07-.06-.03-.09,.04-.07,.45-.73,.81-.77,1.21-.05,.07-.1,0-.14,.1-.2,.36-.44,.72-.72,1.09,0,.06-.04,.11-.03,.17-.06,.09-.22,.2-.19,.28-.19,.19-.28,.38-.32,.56-.17,.23-.47,.47-.54,.69-.05,.09-.11,.01-.16,.12-.29,.67-.74,1.27-1.25,1.76,0,.11-.1,.23-.13,.34-.04,.09-.09,0-.13,.08-.03,.16-.3,.33-.19,.48-.03,.04-.06,.07-.1,.11,0,.06,.01,.12,.01,.18-.23,.19-.55,.36-.55,.7-.94,.88-1.41,1.93-2.06,2.89,.02,.05-.02,.11,.03,.16-.17,.08-.22,.39-.26,.56,.08,.06,.16,.13,.16,.2-.09,.08-.18,.1-.28,.13,0,.18,.11,.52,.35,.31-.02-.05-.04-.09-.05-.13,.35-.02,.23-.4,.23-.59,.07-.02,.14,.01,.21,.02,.38-.54,.87-.91,1.07-1.43,.04-.08,.1-.07,.14-.1,.49-.59,.55-1.32,1.22-1.73,.02-.07,.09-.15,.08-.22,.38-.42,.63-.84,.92-1.25,.03-.04,.06,0,.07-.02,.03-.06,.01-.13,.05-.18,.13-.21,.34-.3,.4-.52,.13-.06,.09-.16,.24-.21,.04-.2,.23-.42,.26-.62,.23-.27,.46-.53,.46-.78,.13-.14,.28-.29,.26-.42,.08,0,.17-.11,.17-.19,.06-.04,.13-.01,.19-.03,.06-.11,.15-.31,.29-.34,.01-.12,.12-.3,.24-.47,.03-.04,.06,0,.07-.02,.02-.05,.01-.21,.08-.29,.04,.04,.07,0,.11,0,.05-.13,.41-.37,.38-.57,.15-.13,.3-.32,.34-.52,.29-.25,.61-.74,.71-1.07,.04-.04,.09,0,.13-.08,.52-.78,.98-1.57,1.6-2.36,0-.05,.06-.1,.02-.15,.03-.06,.07,.03,.1-.05,.18-.45,.67-.75,.83-1.22,.04-.06,.08-.1,.13-.08,.17-.43,.69-.89,.81-1.32,.1-.04,.14-.09,.17-.19,.05-.07,.1,0,.14-.1,.12-.3,.42-.6,.56-.9,.25-.21,.45-.63,.64-.93,.03-.07,.06-.02,.09-.04,.21-.43,.65-.88,.86-1.31,.03-.06,.07,.03,.1-.05,.29-.67,.98-1.37,1.39-2.06,.03-.07,.06-.02,.09-.04,.17-.4,.6-.82,.85-1.23-.03-.05,.05-.1,.02-.15,.16-.2,.49-.39,.54-.69,.03-.08,.08-.02,.12-.07,.21-.43,.77-.9,.99-1.39,.05-.02,.11-.06,.16-.06,.06-.23,.42-.64,.56-.78,.19-.28,.34-.7,.54-.88,0-.14,.25-.29,.26-.42,.14-.05,.31-.27,.23-.39,.03-.06,.07,.03,.1-.05,.02-.17-.25-.26-.37-.29,.15-.16,.32-.09,.47-.15,.23,.09,.56,.47,.7,.55,.06,.03,0,.06-.02,.09,.03,.03,.06,.06,.1,.08,.08,.8-.25,1.63-.81,2.48,.03,.05-.05,.1-.02,.15-1.11,1.85-2.6,3.81-3.77,5.57-.9,1.27-1.68,2.53-2.45,3.79-.39,.52-.68,1.03-1.01,1.55-.35,.49-.63,.94-1,1.47-.1,.15-.15,.34-.25,.49-.72,1.05-1.44,2.15-2.09,3.25-.25,.29-.42,.57-.57,.85-.82,1.2-1.92,2.42-2.64,3.62-.78,1.11-1.85,2.41-2.88,3.44-.08,.05,0,.08-.05,.12-.06-.06-.1,.11-.16,.06,.04,.06-.09,.13-.05,.18-.18,.22-.38,.42-.58,.6-.18,.17-.35,.35-.53,.41-.08,.07-.14,.22-.23,.2-.18,.19-.38,.34-.58,.48-.12,.08-.26,.18-.38,.18,.03-.02,.01-.04,0-.06,.12-.01,.36-.19,.29-.34,.28-.15,.37-.49,.64-.6,.04-.05,0-.09,0-.14,.04-.08,.09,0,.13-.08-.03-.27,.35-.59,.59-.67,.13-.18,.39-.5,.61-.71,.18-.45,.77-.92,1.02-1.37,.16-.07,.24-.28,.26-.42,.57-.62,.99-1.33,1.49-1.97,.28-.16,.37-.69,.74-.85,.01-.1,.1-.2,.08-.29,.32-.25,.25-.62,.55-.76,.13-.19,.39-.38,.43-.56,.18-.16,.66-.69,.55-1.02,.05-.03,.11-.08,.16-.06,.02-.13,.24-.21,.35-.4-.08-.11,.15-.24,.14-.36,.05,.06,.09-.06,.13-.02,.02-.09,.1-.19,.19-.28-.06-.21,.26-.51,.39-.65,.07-.47,.78-.99,.82-1.46,.04-.05,.09-.05,.13-.02,.32-.28,.24-.7,.6-.89,.45-.74,.94-1.47,1.55-2.23,0-.2,.09-.4,.12-.6,.06-.03,.12-.03,.18-.01,.11-.1,.15-.2,.14-.3,.54-.52,.69-1.01,1.1-1.52,0-.07,.04-.14,.02-.21,.06-.09,.13-.09,.2-.1,.22-.38,.49-.77,.66-1.15,.31-.21,.46-.66,.79-.97-.03-.05,.05-.1,.02-.15,.1-.26,.27-.25,.43-.5,.04-.05,.04-.15,.08-.22,0-.01,.16-.16,.19-.22,.03-.06,.14-.19,.22-.32,.06-.1,.07-.24,.14-.36,.26-.41,.65-.64,.69-1.06-.02-.02-.04-.04-.06-.06-.16-.06-.31,.12-.48-.03,.15-.05,.3-.09,.45-.23,.1,.08-.03,.18,.11,.26,.12,.05,.21-.23,.33-.22,0-.09,.11-.19,.19-.28,.12-.47,.73-.96,.97-1.44,.05-.03-.09-.05-.04-.09,.19-.14,.29-.46,.49-.7,0-.07-.04-.13-.06-.19,.19-.18,.27-.35,.4-.52,.04-.28,.26-.58,.36-.87-.01-.14-.01-.28,.09-.43,.02-.08-.1-.14,.03-.23,.07,.06,.05,.14,.16,.2,.06-.12,0-.23-.13-.34h-.15c-.05,.07-.01,.13-.11,.2,.03,.07,.08,.14-.03,.23-.01-.16-.16-.09-.25-.16,.04,.16-.18,.33-.09,.49-.16,.25-.56,.51-.54,.74-.24,.19-.4,.53-.47,.8-.15,.11-.37,.15-.47,.35-.02,.03,.03,.05,.02,.1-.01,.11-.15,.19-.08,.29-.45,.57-.7,.99-1.09,1.58-.03,.08-.08-.01-.12,.07-.05,.04-.04,.17-.09,.23-.03,.04-.07,0-.09,.04-.03,.04,0,.11-.03,.17-.14,.28-.55,.66-.78,.96-.06,.09-.11,.17-.23,.2,.03,.05-.05,.1-.02,.15-.03,.08-.07,0-.1,.05,0,.12-.18,.25-.27,.38,0,.18-.18,.37-.25,.54-.27,.46-.81,.77-.85,1.24-.25,.42-.79,.73-.79,1.17-.31,.38-.54,.8-.82,1.2-.11,.16-.28,.27-.38,.43-.03,.06-.02,.14-.06,.2-.15,.25-.42,.47-.61,.77,.03,.05-.05,.1-.02,.15-.05,.06-.09,.12-.14,.1-.03,.08-.06,.17-.15,.18-.11,.26-.45,.54-.41,.8-.06,.07-.13,.15-.19,.22,0,.04,.01,.08,0,.12-.45,.4-.82,.94-.94,1.41-.12,.02-.3,.24-.25,.35-.2,.06-.25,.32-.28,.46-.4,.31-.58,.86-.94,1.27,.06,.09-.08,.2-.08,.29-.15,.04-.13,.2-.26,.23,.01,.14-.19,.3-.16,.45-.15,.09-.25,.38-.32,.56-.16,.1-.23,.19-.26,.36-.21,.21-.37,.45-.52,.73-.03,.08-.08,.02-.12,.07,0,.07-.12,.26-.21,.24-.16,.23-.35,.61-.64,.93,0,.06-.04,.11-.03,.17-.18,.04-.29,.35-.39,.39-.21,.46-.67,.93-.87,1.39-.04,.08-.09,.05-.13,.08-.13,.39-.48,.74-.73,1.03-.09,.11-.14,.27-.21,.38-.02,.03-.08,.03-.1,.05-.1,.12-.18,.29-.24,.41-.43,.37-.84,1.12-1.23,1.41-.04,.05,0,.09,0,.14-.2,.1-.22,.33-.41,.41-.01,.14-.15,.2-.22,.32-.04,.06-.03,.14-.06,.2-.16,.28-.53,.4-.63,.72-.06,.12-.14,.05-.2,.16-.03-.03-.06-.06-.1-.08-.38,.28-.39,.51-.7,.74-.03,.3-.46,.59-.61,.77-.05-.05-.11-.09-.16-.14,.03-.19-.11-.37-.13-.56,.12-.25,0-.49,.2-.75-.02-.06,.07-.14,0-.2,.45-1.06,1.17-2.14,1.72-3.21,.06-.07,.12-.14,.18-.21,.04-.03-.01-.05,0-.08,.45-.5,.7-.99,1.01-1.49,.25-.24,.36-.48,.45-.71,.11-.03,.04-.07,.16-.12,.31-.43,.41-.84,.77-1.27-.01-.06,.09-.14,.06-.2,.36-.47,.7-.93,.93-1.39,.22-.24,.39-.47,.43-.69,.55-.76,1.08-1.52,1.47-2.27,.03-.08,.07,0,.1-.05,1.04-1.65,2.35-3.33,3.37-4.98,.27-.19,.38-.6,.6-.89,.29-.39,.63-.79,.85-1.17,.72-1.01,1.55-2.04,2.14-3.04,.36-.35,.72-.94,1.03-1.38,.03-.08,.08-.02,.12-.07,.23-.58,.83-.99,1.12-1.48,.06-.1,.13-.19,.25-.29,.03-.03,0-.07,.04-.11,.1-.12,.27-.2,.35-.34,.21-.34,.77-.86,1.11-1.21,.01-.02,0-.07,.02-.09,.24-.22,.46-.46,.71-.69Z"/></g></svg>